<mxfile host="app.diagrams.net" modified="2023-06-15T21:00:23.729Z" agent="Mozilla/5.0 (Windows NT 10.0; Win64; x64; rv:109.0) Gecko/20100101 Firefox/114.0" etag="ZbGwG9IOzdFJYDdjhd3i" version="21.4.0" type="github">
  <diagram id="R2lEEEUBdFMjLlhIrx00" name="Page-1">
    <mxGraphModel dx="794" dy="345" grid="1" gridSize="10" guides="1" tooltips="1" connect="1" arrows="1" fold="1" page="1" pageScale="1" pageWidth="850" pageHeight="1100" math="0" shadow="0" extFonts="Permanent Marker^https://fonts.googleapis.com/css?family=Permanent+Marker">
      <root>
        <mxCell id="0" />
        <mxCell id="1" parent="0" />
        <mxCell id="fd2rfv2mPa3jeMTykctJ-2" value="&lt;font style=&quot;font-size: 15px;&quot;&gt;Jefe&lt;/font&gt;" style="swimlane;fontStyle=0;childLayout=stackLayout;horizontal=1;startSize=30;horizontalStack=0;resizeParent=1;resizeParentMax=0;resizeLast=0;collapsible=1;marginBottom=0;whiteSpace=wrap;html=1;" vertex="1" parent="1">
          <mxGeometry x="329" y="239" width="143" height="60" as="geometry" />
        </mxCell>
        <mxCell id="fd2rfv2mPa3jeMTykctJ-3" value="Miguel Blanquicett" style="text;strokeColor=none;fillColor=none;align=left;verticalAlign=middle;spacingLeft=4;spacingRight=4;overflow=hidden;points=[[0,0.5],[1,0.5]];portConstraint=eastwest;rotatable=0;whiteSpace=wrap;html=1;fontSize=14;" vertex="1" parent="fd2rfv2mPa3jeMTykctJ-2">
          <mxGeometry y="30" width="143" height="30" as="geometry" />
        </mxCell>
        <mxCell id="fd2rfv2mPa3jeMTykctJ-13" value="" style="edgeStyle=orthogonalEdgeStyle;rounded=0;orthogonalLoop=1;jettySize=auto;html=1;endArrow=ERmany;endFill=0;" edge="1" parent="1" source="fd2rfv2mPa3jeMTykctJ-8" target="fd2rfv2mPa3jeMTykctJ-12">
          <mxGeometry relative="1" as="geometry" />
        </mxCell>
        <mxCell id="fd2rfv2mPa3jeMTykctJ-19" value="" style="edgeStyle=orthogonalEdgeStyle;rounded=0;orthogonalLoop=1;jettySize=auto;html=1;" edge="1" parent="1" source="fd2rfv2mPa3jeMTykctJ-18" target="fd2rfv2mPa3jeMTykctJ-8">
          <mxGeometry relative="1" as="geometry" />
        </mxCell>
        <mxCell id="fd2rfv2mPa3jeMTykctJ-8" value="Capataz de obra" style="rounded=0;whiteSpace=wrap;html=1;" vertex="1" parent="1">
          <mxGeometry x="349" y="442" width="100" height="50" as="geometry" />
        </mxCell>
        <mxCell id="fd2rfv2mPa3jeMTykctJ-12" value="Obreros" style="whiteSpace=wrap;html=1;rounded=0;" vertex="1" parent="1">
          <mxGeometry x="359" y="514" width="80" height="40" as="geometry" />
        </mxCell>
        <mxCell id="fd2rfv2mPa3jeMTykctJ-22" style="edgeStyle=orthogonalEdgeStyle;rounded=0;orthogonalLoop=1;jettySize=auto;html=1;entryX=0.503;entryY=0.967;entryDx=0;entryDy=0;entryPerimeter=0;" edge="1" parent="1" source="fd2rfv2mPa3jeMTykctJ-18" target="fd2rfv2mPa3jeMTykctJ-3">
          <mxGeometry relative="1" as="geometry" />
        </mxCell>
        <mxCell id="fd2rfv2mPa3jeMTykctJ-18" value="Area de produccion" style="whiteSpace=wrap;html=1;rounded=0;" vertex="1" parent="1">
          <mxGeometry x="340" y="358" width="120" height="60" as="geometry" />
        </mxCell>
      </root>
    </mxGraphModel>
  </diagram>
</mxfile>
